<svg width="97" height="66" viewBox="0 0 97 66" fill="none" xmlns="http://www.w3.org/2000/svg">
<g style="mix-blend-mode:multiply">
<path fill-rule="evenodd" clip-rule="evenodd" d="M22.9258 11.9009C11.9042 18.2488 6.28036 24.9742 4.64846 33.7927C4.32208 35.6113 3.92038 36.7093 3.11698 38.0818C-1.70341 46.3513 -0.874902 55.3756 5.2008 60.9001C11.6029 66.699 29.604 67.0421 48.8856 61.7236C51.6473 60.9687 56.1162 59.8707 58.8025 59.3217C92.2691 52.4247 103.441 32.2143 93.2984 18.2831C87.1223 9.77345 78.0088 6.13626 62.8195 5.99901C48.3583 5.89607 29.1521 14.0969 15.3186 25.3859C11.7033 28.3369 11.2765 27.1702 12.331 25.6604C16.0467 20.3076 26.064 13.342 36.5333 9.1215C45.8728 5.34705 50.1911 3.80296 57.1957 3.73434C59.9323 3.70002 61.514 1.12654 57.2962 0.817717C52.8272 0.543211 34.9014 5.00392 22.9258 11.9009ZM90.2355 37.6014C85.7917 45.2189 75.5484 50.8806 58.9532 54.8266C3.49358 68.0029 7.86206 39.4886 7.86206 39.4886C7.91227 39.4543 25.3611 15.8812 59.7063 10.1509C76.6028 7.3029 103.542 14.7832 90.2355 37.6014ZM24.0053 60.7285C29.7296 61.7922 23.0011 61.9981 14.5152 61.0373C-1.30171 59.253 3.26762 46.7973 4.72378 44.7386C9.44375 54.0374 15.9965 59.253 24.0053 60.7285Z" fill="#F4B940"/>
</g>
</svg>
