<svg width="140" height="48" viewBox="0 0 140 48" fill="none" xmlns="http://www.w3.org/2000/svg">
<g clip-path="url(#clip0_141_265)">
<path d="M2.888 2.07072L29.448 0.109122C32.7104 -0.170878 33.5488 0.0179219 35.6 1.50912L44.0784 7.48192C45.4768 8.50912 45.9424 8.78912 45.9424 9.90752V42.6643C45.9424 44.7171 45.1968 45.9315 42.5872 46.1171L11.744 47.9843C9.7856 48.0771 8.8528 47.7971 7.8272 46.4899L1.584 38.3715C0.464 36.8771 0 35.7587 0 34.4515V5.33472C0 3.65632 0.7456 2.25632 2.888 2.07072Z" fill="white"/>
<path fill-rule="evenodd" clip-rule="evenodd" d="M29.448 0.109122L2.888 2.07072C0.7456 2.25632 0 3.65632 0 5.33472V34.4515C0 35.7587 0.464 36.8771 1.584 38.3715L7.8272 46.4899C8.8528 47.7971 9.7856 48.0771 11.744 47.9843L42.5872 46.1171C45.1952 45.9315 45.9424 44.7171 45.9424 42.6643V9.90752C45.9424 8.84672 45.5232 8.54112 44.2896 7.63552C44.2186 7.58439 44.1477 7.53319 44.0768 7.48192L35.6 1.50912C33.5488 0.0179219 32.7104 -0.170878 29.448 0.109122ZM12.4416 9.37152C9.9232 9.54112 9.352 9.57952 7.9216 8.41632L4.2848 5.52352C3.9152 5.14912 4.1008 4.68192 5.032 4.58912L30.5648 2.72352C32.7088 2.53632 33.8256 3.28352 34.664 3.93632L39.0432 7.10912C39.2304 7.20352 39.696 7.76192 39.136 7.76192L12.768 9.34912L12.4416 9.37152ZM9.5056 42.3843V14.5763C9.5056 13.3619 9.8784 12.8019 10.9952 12.7075L41.28 10.9347C42.3072 10.8419 42.7712 11.4947 42.7712 12.7075V40.3299C42.7712 41.5443 42.584 42.5715 40.9072 42.6643L11.9264 44.3443C10.2496 44.4371 9.5056 43.8787 9.5056 42.3843ZM38.1136 16.0675C38.2992 16.9075 38.1136 17.7475 37.2736 17.8435L35.8768 18.1203V38.6515C34.664 39.3043 33.5472 39.6771 32.6144 39.6771C31.1232 39.6771 30.7504 39.2099 29.6336 37.8115L20.4992 23.4403V37.3443L23.3888 37.9987C23.3888 37.9987 23.3888 39.6787 21.0576 39.6787L14.6304 40.0515C14.4432 39.6771 14.6304 38.7443 15.2816 38.5587L16.96 38.0931V19.7091L14.6304 19.5203C14.4432 18.6803 14.9088 17.4675 16.2144 17.3731L23.1104 16.9091L32.6144 31.4659V18.5875L30.192 18.3091C30.0048 17.2803 30.7504 16.5331 31.6816 16.4419L38.1136 16.0675Z" fill="black"/>
<path d="M66.2944 34.0016V21.3456H66.5136L75.64 34.0016H78.5136V15.4032H75.3184V28.0464H75.0992L65.9728 15.4032H63.088V34H66.296L66.2944 34.0016ZM87.544 34.2864C91.76 34.2864 94.3248 31.528 94.3248 26.952C94.3248 22.3888 91.7472 19.6176 87.544 19.6176C83.3552 19.6176 80.7648 22.4016 80.7648 26.952C80.7648 31.528 83.3168 34.2864 87.544 34.2864ZM87.544 31.6048C85.3152 31.6048 84.04 29.904 84.04 26.952C84.04 24.0128 85.3152 22.2992 87.544 22.2992C89.7616 22.2992 91.0368 24.0128 91.0368 26.952C91.0368 29.904 89.7744 31.6048 87.544 31.6048ZM97.2448 16.448V19.992H95.016V22.544H97.2448V30.2384C97.2448 32.9712 98.5344 34.0672 101.77 34.0672C102.387 34.0672 102.981 34.0032 103.445 33.912V31.4112C103.058 31.4496 102.813 31.4752 102.362 31.4752C101.022 31.4752 100.429 30.8576 100.429 29.4656V22.544H103.445V19.992H100.429V16.4464L97.2448 16.448ZM105.36 34.0016H108.544V19.9008H105.36V34.0016ZM106.946 17.5696C108.002 17.5696 108.853 16.7168 108.853 15.648C108.853 14.5776 108.003 13.7136 106.946 13.7136C105.902 13.7136 105.038 14.5776 105.038 15.648C105.038 16.7168 105.902 17.568 106.946 17.568V17.5696ZM117.278 34.2864C121.493 34.2864 124.058 31.528 124.058 26.952C124.058 22.3888 121.48 19.6176 117.278 19.6176C113.088 19.6176 110.498 22.4016 110.498 26.952C110.498 31.528 113.05 34.2864 117.278 34.2864ZM117.278 31.6048C115.048 31.6048 113.771 29.904 113.771 26.952C113.771 24.0128 115.048 22.2992 117.278 22.2992C119.494 22.2992 120.771 24.0128 120.771 26.952C120.771 29.904 119.507 31.6048 117.278 31.6048ZM125.96 34.0016H129.157V25.792C129.157 23.7168 130.357 22.4016 132.262 22.4016C134.21 22.4016 135.11 23.4848 135.11 25.6368V34.0016H138.309V24.8768C138.309 21.512 136.594 19.6176 133.45 19.6176C131.347 19.6176 129.93 20.584 129.259 22.1568H129.04V19.9008H125.96V34.0016Z" fill="black"/>
</g>
<defs>
<clipPath id="clip0_141_265">
<rect width="139.2" height="48" fill="white"/>
</clipPath>
</defs>
</svg>
