<svg width="16" height="16" viewBox="0 0 16 16" fill="none" xmlns="http://www.w3.org/2000/svg">
<path fill-rule="evenodd" clip-rule="evenodd" d="M6.46607 2.34604C7.041 0.992726 8.9591 0.992726 9.53403 2.34604L10.5724 4.79033L13.138 5.00521C14.5897 5.12679 15.1977 6.92117 14.119 7.90021L12.1571 9.68088L12.7993 12.6383C13.1237 14.1325 11.433 15.2385 10.194 14.3426L8.00005 12.7563L5.8061 14.3426C4.56705 15.2385 2.87638 14.1325 3.20084 12.6383L3.84305 9.68089L1.88106 7.90022C0.80234 6.92118 1.41039 5.12679 2.86206 5.00521L5.42767 4.79033L6.46607 2.34604ZM8.30685 2.86739C8.19186 2.59672 7.80824 2.59672 7.69326 2.86739L6.57623 5.49673C6.43117 5.83818 6.109 6.07127 5.73931 6.10223L2.97335 6.33389C2.68301 6.35821 2.5614 6.71709 2.77715 6.91289L4.88171 8.82296C5.14638 9.06317 5.26272 9.42638 5.18687 9.77566L4.50381 12.9213C4.43891 13.2201 4.77705 13.4413 5.02486 13.2621L7.41412 11.5345C7.76382 11.2817 8.23628 11.2817 8.58598 11.5345L10.9752 13.2621C11.2231 13.4413 11.5612 13.2201 11.4963 12.9213L10.8132 9.77566C10.7374 9.42638 10.8537 9.06318 11.1184 8.82297L13.2229 6.91289C13.4386 6.71708 13.317 6.35821 13.0267 6.33389L10.2608 6.10223C9.8911 6.07127 9.56893 5.83818 9.42387 5.49673L8.30685 2.86739Z" fill="#D1D5DB"/>
</svg>
