<svg width="17" height="16" viewBox="0 0 17 16" fill="none" xmlns="http://www.w3.org/2000/svg">
<path d="M7.32267 1.95888C7.65932 1.12438 8.84077 1.12438 9.17743 1.95888L10.4689 5.16029C10.5161 5.27725 10.6253 5.35756 10.751 5.36782L13.9951 5.63252C14.8747 5.7043 15.2368 6.79725 14.5742 7.3801L12.1125 9.54521C12.0214 9.62534 11.981 9.74864 12.0071 9.86713L12.7943 13.4452C12.9909 14.339 11.9831 15.0055 11.2376 14.4747L8.44339 12.4851C8.32766 12.4027 8.17243 12.4027 8.05671 12.4851L5.26248 14.4747C4.51698 15.0055 3.50919 14.339 3.70582 13.4452L4.49301 9.86714C4.51908 9.74864 4.47871 9.62534 4.3876 9.54521L1.92584 7.38011C1.26314 6.79727 1.62531 5.7043 2.50493 5.63252L5.74914 5.36782C5.87483 5.35756 5.98397 5.27725 6.03115 5.16029L7.32267 1.95888Z" fill="#F4B940"/>
</svg>
