<svg width="58" height="117" viewBox="0 0 58 117" fill="none" xmlns="http://www.w3.org/2000/svg">
<path d="M5.92677 95.936C4.73272 98.3207 9.4343 101.412 25.9272 109.185C43.3902 117.399 47.495 118.459 48.0174 115.191C48.689 110.686 7.94174 92.138 5.92677 95.936Z" fill="#D3D2D2"/>
<path d="M30.2557 2.04704C23.9869 -1.66262 22.6435 -0.867785 11.6732 12.9992C0.32965 27.3077 -1.3121 30.3993 0.777495 33.1373C4.58354 38.0834 8.61355 35.4338 23.3899 18.5638C34.2857 6.11005 34.8826 4.78509 30.2557 2.04704Z" fill="#D3D2D2"/>
<path d="M54.1369 48.0643C49.6592 45.3262 47.5696 45.4147 39.5842 48.5943C15.927 58.1334 -1.61077 62.726 7.19537 67.8489C10.7775 69.9686 15.33 68.7322 43.3156 58.6632C58.7638 53.0105 60.1071 51.7739 54.1369 48.0643Z" fill="#D3D2D2"/>
</svg>
